<svg width="1430" height="788" viewBox="0 0 1430 788" fill="none" xmlns="http://www.w3.org/2000/svg">
<path fill-rule="evenodd" clip-rule="evenodd" d="M447.288 172.1L531.589 315.2L452.158 317.6L420.811 330.9L494.561 345.2L483.301 356.3V370.6L666.205 353.9L791.185 327.1L911.6 282.2L960.597 271.8V286.8L964.959 295.3H983.321L992.856 285.9C992.856 285.9 1015.17 295.8 1025.72 293.2C1036.48 290.3 1043.17 310.1 1043.17 310.1C1043.17 310.1 1069.14 312 1069.14 289.6C1069.14 267.1 1051.49 268.1 1051.49 268.1L1079.19 245.6L1099.27 233.5C1099.27 233.5 1094.4 262.7 1111.55 266.1C1128.99 269.7 1242 216.1 1242 216.1C1242 216.1 1246.16 170.4 1224.86 170.2L1187.12 169.7L1299.93 126.7C1299.93 126.7 1417.4 73.8 1425.42 55.2001C1433.23 36.6001 1428.56 16.3001 1411.72 14.4001C1394.78 12.5001 1385.95 13.7 1385.95 13.7C1385.95 13.7 1334.52 -13.9 1283.19 12.2L1279.74 13.9001L896.281 160.3L684.465 153.8L628.367 159.4L724.232 184.1L740.666 208.5L799.3 202.9L677.263 249.3L634.352 243.3L494.156 151.7L447.288 172.1Z" fill="black"/>
<path fill-rule="evenodd" clip-rule="evenodd" d="M483.301 342.9C-224.984 619.6 9.96119 767.7 1187.43 787.3C-108.019 772.1 -342.66 624 483.301 342.9Z" fill="black"/>
</svg>
